<svg xmlns="http://www.w3.org/2000/svg" width="108" height="40" viewBox="0 0 108 40" fill="none">
  <path d="M5.30488 32.2212C5.29551 32.2493 5.2955 32.2774 5.28613 32.3055C5.2955 32.2681 5.30488 32.2399 5.30488 32.2212Z" fill="url(#paint0_linear_200_190)"/>
  <path d="M5.75465 30.4126C5.70779 30.5626 5.6703 30.7219 5.63281 30.8625C5.66093 30.7219 5.70779 30.5719 5.75465 30.4126Z" fill="url(#paint1_linear_200_190)"/>
  <path d="M6.02615 29.522C5.99803 29.5969 5.97929 29.6719 5.95117 29.7469C5.97929 29.6813 5.99803 29.5969 6.02615 29.522Z" fill="url(#paint2_linear_200_190)"/>
  <path d="M5.95154 29.7661C5.92342 29.8598 5.8953 29.9536 5.86719 30.0473C5.88593 29.9536 5.92342 29.8598 5.95154 29.7661Z" fill="url(#paint3_linear_200_190)"/>
  <path d="M5.83904 30.1128C5.8203 30.1784 5.79218 30.2534 5.77344 30.319C5.80155 30.2534 5.8203 30.1878 5.83904 30.1128Z" fill="url(#paint4_linear_200_190)"/>
  <path d="M5.11728 33.3081C5.11728 33.3268 5.10791 33.3456 5.10791 33.3643C5.11728 33.3456 5.11728 33.3268 5.11728 33.3081Z" fill="url(#paint5_linear_200_190)"/>
  <path d="M5.26728 32.418C5.25791 32.4461 5.25791 32.4742 5.24854 32.5023C5.25791 32.4742 5.26728 32.4461 5.26728 32.418Z" fill="url(#paint6_linear_200_190)"/>
  <path d="M5.20176 32.812C5.20176 32.8308 5.19238 32.8589 5.19238 32.887C5.19238 32.8589 5.19238 32.8308 5.20176 32.812Z" fill="url(#paint7_linear_200_190)"/>
  <path d="M14.0019 18.7441C13.9081 18.8097 13.8144 18.8754 13.7207 18.9316C13.8144 18.866 13.9081 18.8097 14.0019 18.7441Z" fill="url(#paint8_linear_200_190)"/>
  <path d="M10.9655 21.2935C10.9092 21.3497 10.8624 21.4059 10.8062 21.4528C10.8624 21.4059 10.9186 21.3497 10.9655 21.2935Z" fill="url(#paint9_linear_200_190)"/>
  <path d="M11.1343 21.1245C11.6685 20.5903 12.2402 20.0748 12.8681 19.5781C12.2402 20.0748 11.6591 20.5903 11.1343 21.1245Z" fill="url(#paint10_linear_200_190)"/>
  <path d="M28.8245 23.4459C26.3315 22.996 27.3906 18.563 27.3906 18.563C30.5677 10.1281 25.1225 7.67262 25.1225 7.67262C25.0475 10.8498 22.817 11.3465 22.817 11.3465C18.9182 12.0307 17.9341 8.89099 17.9341 8.89099C16.0128 4.29866 19.0681 0.00623874 19.0681 0.00623874C8.47765 -0.368646 7.19367 16.2762 7.19367 16.2762C6.07839 17.7195 4.46639 16.9979 4.46639 16.9979C2.26394 15.8826 2.57322 13.3709 2.57322 13.3709C-4.42774 25.4796 5.07557 34.0645 5.07557 34.0738C5.07557 34.0645 3.23864 21.6933 16.0034 15.1609C16.0034 15.1609 28.2622 21.2715 26.7439 34.0738C31.8892 29.5377 32.0016 22.4243 32.0016 22.4243C30.9801 23.8957 28.8245 23.4459 28.8245 23.4459Z" fill="url(#paint11_linear_200_190)"/>
  <path d="M14.7893 18.2285C14.5643 18.3691 14.3488 18.5097 14.1426 18.6503C14.3488 18.5003 14.5737 18.3597 14.7893 18.2285Z" fill="url(#paint12_linear_200_190)"/>
  <path d="M9.58772 22.8584C9.51275 22.9521 9.43777 23.0458 9.36279 23.1396C9.43777 23.0552 9.51275 22.9615 9.58772 22.8584Z" fill="url(#paint13_linear_200_190)"/>
  <path d="M7.77864 25.5762C7.45999 26.1385 7.17883 26.7008 6.92578 27.2444C7.16946 26.7008 7.45999 26.1385 7.77864 25.5762Z" fill="url(#paint14_linear_200_190)"/>
  <path d="M10.7121 21.5557C10.3278 21.968 9.97167 22.3804 9.63428 22.8022C9.97167 22.3898 10.3278 21.968 10.7121 21.5557Z" fill="url(#paint15_linear_200_190)"/>
  <path d="M6.13864 29.1943C6.11053 29.2787 6.07304 29.3724 6.04492 29.4568C6.08241 29.3724 6.11053 29.2881 6.13864 29.1943Z" fill="url(#paint16_linear_200_190)"/>
  <path d="M3.31777 22.4835C5.43586 22.4835 7.14159 19.8687 7.14159 16.6447C7.14159 16.5322 7.14159 16.4198 7.13222 16.3073C6.01694 17.7412 4.41431 17.0196 4.41431 17.0196C2.21186 15.9043 2.52114 13.3926 2.52114 13.3926C1.18093 15.7075 0.449905 17.9006 0.140625 19.9249C0.834161 21.462 1.9963 22.4835 3.31777 22.4835Z" fill="url(#paint17_linear_200_190)"/>
  <path d="M23.0556 14.817C25.2581 14.817 27.1419 13.2332 27.8823 11.012C26.9825 8.56585 25.08 7.70361 25.08 7.70361C25.005 10.8808 22.7745 11.3775 22.7745 11.3775C18.8757 12.0616 17.8916 8.92199 17.8916 8.92199C17.8916 12.1741 20.1971 14.817 23.0556 14.817Z" fill="url(#paint18_linear_200_190)"/>
  <path d="M28.7816 23.4865C26.5417 23.0741 27.1696 19.4659 27.3196 18.7349C26.9541 19.3347 26.6729 20.047 26.4948 20.8342C25.9513 23.3178 26.7573 25.6046 28.2943 25.9326C29.7376 26.2419 31.3027 24.733 31.94 22.4931C30.9091 23.927 28.7816 23.4865 28.7816 23.4865Z" fill="url(#paint19_linear_200_190)"/>
  <path d="M16.0073 15.0889C3.21888 21.6183 5.0592 34.0205 5.0592 34.0205C5.0592 34.0205 5.69768 22.9692 16.0073 17.4436C16.0073 17.4436 25.4718 21.5151 26.7675 34.0205C28.2886 21.2055 16.0073 15.0889 16.0073 15.0889Z" fill="url(#paint20_linear_200_190)"/>
  <path d="M15.8857 33.7206C12.9147 33.7206 10.2718 33.102 8.55669 32.1367H8.40674V34.7609C8.40674 37.6475 11.7713 39.9999 15.8951 39.9999C20.0188 39.9999 23.3834 37.6381 23.3834 34.7609V32.1367H23.2334C21.4996 33.102 18.8566 33.7206 15.8857 33.7206Z" fill="url(#paint21_linear_200_190)"/>
  <path d="M23.2148 32.1367C21.4997 33.102 18.8567 33.7206 15.8858 33.7206C12.9148 33.7206 10.2719 33.102 8.55679 32.1367H8.40683C8.40683 32.1648 8.39746 32.1836 8.39746 32.2117C8.39746 33.6175 11.7527 34.7515 15.8858 34.7515C20.0189 34.7515 23.3741 33.6175 23.3741 32.2117C23.3741 32.1836 23.3741 32.1555 23.3647 32.1367H23.2148Z" fill="url(#paint22_linear_200_190)"/>
  <path d="M15.848 23.1491C14.4141 23.1679 13.252 24.3488 13.252 25.7827C13.252 26.6449 13.6643 27.4041 14.3016 27.8914C14.7421 28.2288 15.0139 28.7443 15.0139 29.2972V31.0311C15.0139 31.5184 15.4169 31.9308 15.9043 31.9308C16.3822 31.9214 16.7759 31.5372 16.7759 31.0498V29.2785C16.7759 28.7255 17.0383 28.2195 17.4788 27.8821C18.1161 27.4041 18.5285 26.6356 18.5285 25.7733C18.5191 24.3207 17.3194 23.1304 15.848 23.1491ZM16.7665 25.7827C16.7665 26.2701 16.3729 26.6637 15.8855 26.6637C15.3982 26.6637 15.0045 26.2701 15.0045 25.7827C15.0045 25.2954 15.3982 24.9017 15.8855 24.9017C16.3729 24.9017 16.7665 25.2954 16.7665 25.7827Z" fill="url(#paint23_linear_200_190)"/>
  <path fill-rule="evenodd" clip-rule="evenodd" d="M50.811 17.4874C50.2989 17.4874 49.8699 17.3213 49.524 16.9892C49.178 16.6571 49.005 16.2488 49.005 15.7645C49.005 15.2524 49.178 14.8303 49.524 14.4982C49.8699 14.1661 50.2989 14 50.811 14C51.3369 14 51.7659 14.1661 52.098 14.4982C52.444 14.8303 52.617 15.2524 52.617 15.7645C52.617 16.2488 52.444 16.6571 52.098 16.9892C51.7659 17.3213 51.3369 17.4874 50.811 17.4874ZM52.3056 28.5931C52.3056 29.5203 51.8212 29.9839 50.8525 29.9839C50.382 29.9839 50.0083 29.8732 49.7316 29.6518C49.4548 29.4165 49.3164 29.0636 49.3164 28.5931V20.6842C49.3164 20.2413 49.4271 19.8954 49.6485 19.6463C49.8838 19.3972 50.2713 19.2726 50.811 19.2726C51.3507 19.2726 51.7313 19.3972 51.9527 19.6463C52.188 19.8954 52.3056 20.2413 52.3056 20.6842V28.5931ZM65.1072 28.5724C65.1072 29.5134 65.6054 29.9839 66.6018 29.9839C67.5982 29.9839 68.0964 29.5134 68.0964 28.5724V23.7565C68.0964 22.4279 68.5807 21.7637 69.5494 21.7637C70.5458 21.7637 71.044 22.4279 71.044 23.7565V28.4893C71.044 29.4304 71.5284 29.9009 72.4971 29.9009C73.4658 29.9009 73.9502 29.4304 73.9502 28.4893V23.7565C73.9502 22.4279 74.4484 21.7637 75.4448 21.7637C75.943 21.7637 76.3097 21.9228 76.545 22.2411C76.7803 22.5456 76.8979 23.0507 76.8979 23.7565V28.5724C76.8979 29.5134 77.3961 29.9839 78.3925 29.9839C79.3889 29.9839 79.8871 29.5134 79.8871 28.5724V23.5904C79.8871 22.1788 79.548 21.1063 78.8699 20.3728C78.2057 19.6394 77.2439 19.2727 75.9845 19.2727C74.2685 19.2727 73.106 19.8885 72.4971 21.1201C71.8882 19.8885 70.7257 19.2727 69.0097 19.2727C67.7504 19.2727 66.7817 19.6394 66.1036 20.3728C65.4393 21.1063 65.1072 22.1788 65.1072 23.5904V28.5724ZM82.1152 28.5724C82.1152 29.5134 82.6134 29.9839 83.6098 29.9839C84.6062 29.9839 85.1044 29.5134 85.1044 28.5724V23.7565C85.1044 22.4279 85.5887 21.7637 86.5574 21.7637C87.5538 21.7637 88.052 22.4279 88.052 23.7565V28.4893C88.052 29.4304 88.5364 29.9009 89.5051 29.9009C90.4739 29.9009 90.9582 29.4304 90.9582 28.4893V23.7565C90.9582 22.4279 91.4564 21.7637 92.4528 21.7637C92.951 21.7637 93.3177 21.9228 93.553 22.2411C93.7883 22.5456 93.9059 23.0507 93.9059 23.7565V28.5724C93.9059 29.5134 94.4041 29.9839 95.4005 29.9839C96.3969 29.9839 96.8951 29.5134 96.8951 28.5724V23.5904C96.8951 22.1788 96.556 21.1063 95.8779 20.3728C95.2137 19.6394 94.2519 19.2727 92.9925 19.2727C91.2765 19.2727 90.114 19.8885 89.5051 21.1201C88.8962 19.8885 87.7338 19.2727 86.0177 19.2727C84.7584 19.2727 83.7897 19.6394 83.1116 20.3728C82.4473 21.1063 82.1152 22.1788 82.1152 23.5904V28.5724ZM102.92 29.9842C101.537 29.9842 100.457 29.6659 99.6821 29.0293C98.9072 28.3789 98.5197 27.5416 98.5197 26.5175C98.5197 25.3135 99.0248 24.4417 100.035 23.902C101.059 23.3623 102.554 23.1754 104.519 23.3415C104.422 22.7049 104.221 22.2759 103.917 22.0545C103.612 21.8192 103.246 21.7016 102.817 21.7016C102.471 21.7016 102.18 21.7224 101.945 21.7639C101.723 21.7915 101.516 21.8261 101.322 21.8677C101.128 21.9092 100.893 21.9299 100.616 21.9299C100.243 21.9299 99.9451 21.8677 99.7236 21.7431C99.5022 21.6047 99.3915 21.3349 99.3915 20.9335C99.3915 20.3661 99.6337 19.951 100.118 19.688C100.616 19.4113 101.398 19.2729 102.464 19.2729C104.152 19.2729 105.405 19.7572 106.221 20.726C107.033 21.6754 107.441 22.9464 107.446 24.5388C107.451 24.6022 107.454 24.6678 107.454 24.7357V28.6187C107.454 29.5397 106.991 30.0002 106.067 30.0002C105.621 30.0002 105.267 29.892 105.003 29.6756C104.428 29.8813 103.734 29.9842 102.92 29.9842ZM101.509 26.5175C101.509 27.3063 102.042 27.7007 103.107 27.7007C103.453 27.7007 103.723 27.6385 103.917 27.5139C104.111 27.3894 104.249 27.1403 104.332 26.7666C104.429 26.393 104.498 25.8325 104.54 25.0852C104.47 25.1544 104.38 25.2028 104.27 25.2305C104.159 25.2582 104.048 25.272 103.938 25.272C103.024 25.272 102.388 25.362 102.028 25.5419C101.682 25.708 101.509 26.0332 101.509 26.5175ZM55.3625 29.0291C56.1374 29.6657 57.2169 29.9839 58.6008 29.9839C59.4142 29.9839 60.1084 29.8811 60.6834 29.6754C60.947 29.8918 61.3015 30 61.747 30C62.6717 30 63.1341 29.5395 63.1341 28.6184V24.7355C63.1341 24.6676 63.1314 24.6021 63.126 24.5388C63.1214 22.9462 62.7132 21.6752 61.9013 20.7257C61.0848 19.757 59.8324 19.2727 58.1441 19.2727C57.0785 19.2727 56.2966 19.411 55.7984 19.6878C55.314 19.9508 55.0719 20.3659 55.0719 20.9333C55.0719 21.3346 55.1826 21.6045 55.404 21.7429C55.6254 21.8674 55.9229 21.9297 56.2966 21.9297C56.5734 21.9297 56.8086 21.909 57.0024 21.8674C57.1961 21.8259 57.4037 21.7913 57.6251 21.7637C57.8604 21.7221 58.151 21.7014 58.497 21.7014C58.926 21.7014 59.2927 21.819 59.5972 22.0543C59.9016 22.2757 60.1023 22.7047 60.1992 23.3413C58.234 23.1752 56.7394 23.362 55.7154 23.9018C54.7051 24.4415 54.2 25.3133 54.2 26.5173C54.2 27.5414 54.5875 28.3786 55.3625 29.0291ZM58.7876 27.7005C57.722 27.7005 57.1892 27.3061 57.1892 26.5173C57.1892 26.0329 57.3622 25.7077 57.7082 25.5417C58.068 25.3618 58.7046 25.2718 59.6179 25.2718C59.7286 25.2718 59.8393 25.258 59.9501 25.2303C60.0608 25.2026 60.1507 25.1542 60.2199 25.085C60.1784 25.8323 60.1092 26.3928 60.0123 26.7664C59.9293 27.1401 59.7909 27.3892 59.5972 27.5137C59.4034 27.6383 59.1336 27.7005 58.7876 27.7005ZM40.5361 29.9839C41.5048 29.9839 41.9892 29.5203 41.9892 28.5931V26.2681C41.9892 25.5347 42.1276 25.0434 42.4044 24.7943C42.6811 24.5452 43.2139 24.4206 44.0028 24.4206H45.6219C46.5768 24.4206 47.0542 23.957 47.0542 23.0298C47.0542 22.1026 46.5768 21.639 45.6219 21.639H44.1688C43.1309 21.639 42.3421 21.8535 41.8024 22.2825C41.8716 21.895 41.92 21.4868 41.9477 21.0578C41.9754 20.6149 41.9892 20.2067 41.9892 19.833C41.9892 19.2933 42.0169 18.8989 42.0722 18.6498C42.1276 18.3869 42.2521 18.2208 42.4459 18.1516C42.6396 18.0686 42.9372 18.0271 43.3385 18.0271H46.6598C47.1027 18.0271 47.4556 17.9025 47.7185 17.6534C47.9814 17.4043 48.1129 17.0791 48.1129 16.6778C48.1129 16.2488 47.9814 15.9097 47.7185 15.6606C47.4556 15.4115 47.1027 15.287 46.6598 15.287H42.1968C41.1865 15.287 40.3977 15.5776 39.8303 16.1588C39.2768 16.7262 39 17.5289 39 18.5668V28.5931C39 29.0497 39.1384 29.3957 39.4152 29.631C39.6919 29.8662 40.0656 29.9839 40.5361 29.9839Z" fill="black"/>
  <defs>
    <linearGradient id="paint0_linear_200_190" x1="5.30125" y1="32.2972" x2="5.30125" y2="32.2166" gradientUnits="userSpaceOnUse">
      <stop stop-color="#F0943C"/>
      <stop offset="0.0421637" stop-color="#EE8F42"/>
      <stop offset="0.3682" stop-color="#E76A5F"/>
      <stop offset="0.648" stop-color="#E34B6B"/>
      <stop offset="0.8676" stop-color="#E03170"/>
      <stop offset="1" stop-color="#DF2471"/>
    </linearGradient>
    <linearGradient id="paint1_linear_200_190" x1="5.68808" y1="30.8681" x2="5.68808" y2="30.4145" gradientUnits="userSpaceOnUse">
      <stop stop-color="#F0943C"/>
      <stop offset="0.0421637" stop-color="#EE8F42"/>
      <stop offset="0.3682" stop-color="#E76A5F"/>
      <stop offset="0.648" stop-color="#E34B6B"/>
      <stop offset="0.8676" stop-color="#E03170"/>
      <stop offset="1" stop-color="#DF2471"/>
    </linearGradient>
    <linearGradient id="paint2_linear_200_190" x1="5.98993" y1="29.7536" x2="5.98993" y2="29.525" gradientUnits="userSpaceOnUse">
      <stop stop-color="#F0943C"/>
      <stop offset="0.0421637" stop-color="#EE8F42"/>
      <stop offset="0.3682" stop-color="#E76A5F"/>
      <stop offset="0.648" stop-color="#E34B6B"/>
      <stop offset="0.8676" stop-color="#E03170"/>
      <stop offset="1" stop-color="#DF2471"/>
    </linearGradient>
    <linearGradient id="paint3_linear_200_190" x1="5.90603" y1="30.043" x2="5.90603" y2="29.7619" gradientUnits="userSpaceOnUse">
      <stop stop-color="#F0943C"/>
      <stop offset="0.0421637" stop-color="#EE8F42"/>
      <stop offset="0.3682" stop-color="#E76A5F"/>
      <stop offset="0.648" stop-color="#E34B6B"/>
      <stop offset="0.8676" stop-color="#E03170"/>
      <stop offset="1" stop-color="#DF2471"/>
    </linearGradient>
    <linearGradient id="paint4_linear_200_190" x1="5.80849" y1="30.3248" x2="5.80849" y2="30.116" gradientUnits="userSpaceOnUse">
      <stop stop-color="#F0943C"/>
      <stop offset="0.0421637" stop-color="#EE8F42"/>
      <stop offset="0.3682" stop-color="#E76A5F"/>
      <stop offset="0.648" stop-color="#E34B6B"/>
      <stop offset="0.8676" stop-color="#E03170"/>
      <stop offset="1" stop-color="#DF2471"/>
    </linearGradient>
    <linearGradient id="paint5_linear_200_190" x1="5.11737" y1="33.363" x2="5.11737" y2="33.308" gradientUnits="userSpaceOnUse">
      <stop stop-color="#F0943C"/>
      <stop offset="0.0421637" stop-color="#EE8F42"/>
      <stop offset="0.3682" stop-color="#E76A5F"/>
      <stop offset="0.648" stop-color="#E34B6B"/>
      <stop offset="0.8676" stop-color="#E03170"/>
      <stop offset="1" stop-color="#DF2471"/>
    </linearGradient>
    <linearGradient id="paint6_linear_200_190" x1="5.26152" y1="32.5028" x2="5.26152" y2="32.4198" gradientUnits="userSpaceOnUse">
      <stop stop-color="#F0943C"/>
      <stop offset="0.0421637" stop-color="#EE8F42"/>
      <stop offset="0.3682" stop-color="#E76A5F"/>
      <stop offset="0.648" stop-color="#E34B6B"/>
      <stop offset="0.8676" stop-color="#E03170"/>
      <stop offset="1" stop-color="#DF2471"/>
    </linearGradient>
    <linearGradient id="paint7_linear_200_190" x1="5.19297" y1="32.8818" x2="5.19297" y2="32.8113" gradientUnits="userSpaceOnUse">
      <stop stop-color="#F0943C"/>
      <stop offset="0.0421637" stop-color="#EE8F42"/>
      <stop offset="0.3682" stop-color="#E76A5F"/>
      <stop offset="0.648" stop-color="#E34B6B"/>
      <stop offset="0.8676" stop-color="#E03170"/>
      <stop offset="1" stop-color="#DF2471"/>
    </linearGradient>
    <linearGradient id="paint8_linear_200_190" x1="13.8588" y1="18.9351" x2="13.8588" y2="18.7433" gradientUnits="userSpaceOnUse">
      <stop stop-color="#F0943C"/>
      <stop offset="0.0421637" stop-color="#EE8F42"/>
      <stop offset="0.3682" stop-color="#E76A5F"/>
      <stop offset="0.648" stop-color="#E34B6B"/>
      <stop offset="0.8676" stop-color="#E03170"/>
      <stop offset="1" stop-color="#DF2471"/>
    </linearGradient>
    <linearGradient id="paint9_linear_200_190" x1="10.8887" y1="21.4567" x2="10.8887" y2="21.293" gradientUnits="userSpaceOnUse">
      <stop stop-color="#F0943C"/>
      <stop offset="0.0421637" stop-color="#EE8F42"/>
      <stop offset="0.3682" stop-color="#E76A5F"/>
      <stop offset="0.648" stop-color="#E34B6B"/>
      <stop offset="0.8676" stop-color="#E03170"/>
      <stop offset="1" stop-color="#DF2471"/>
    </linearGradient>
    <linearGradient id="paint10_linear_200_190" x1="11.9998" y1="21.1262" x2="11.9998" y2="19.5757" gradientUnits="userSpaceOnUse">
      <stop stop-color="#F0943C"/>
      <stop offset="0.0421637" stop-color="#EE8F42"/>
      <stop offset="0.3682" stop-color="#E76A5F"/>
      <stop offset="0.648" stop-color="#E34B6B"/>
      <stop offset="0.8676" stop-color="#E03170"/>
      <stop offset="1" stop-color="#DF2471"/>
    </linearGradient>
    <linearGradient id="paint11_linear_200_190" x1="16.0019" y1="34.0692" x2="16.0019" y2="-0.0178936" gradientUnits="userSpaceOnUse">
      <stop stop-color="#F99C34"/>
      <stop offset="1" stop-color="#F61530"/>
    </linearGradient>
    <linearGradient id="paint12_linear_200_190" x1="14.4665" y1="18.6437" x2="14.4665" y2="18.2242" gradientUnits="userSpaceOnUse">
      <stop stop-color="#F0943C"/>
      <stop offset="0.0421637" stop-color="#EE8F42"/>
      <stop offset="0.3682" stop-color="#E76A5F"/>
      <stop offset="0.648" stop-color="#E34B6B"/>
      <stop offset="0.8676" stop-color="#E03170"/>
      <stop offset="1" stop-color="#DF2471"/>
    </linearGradient>
    <linearGradient id="paint13_linear_200_190" x1="9.47876" y1="23.1478" x2="9.47876" y2="22.8627" gradientUnits="userSpaceOnUse">
      <stop stop-color="#F0943C"/>
      <stop offset="0.0421637" stop-color="#EE8F42"/>
      <stop offset="0.3682" stop-color="#E76A5F"/>
      <stop offset="0.648" stop-color="#E34B6B"/>
      <stop offset="0.8676" stop-color="#E03170"/>
      <stop offset="1" stop-color="#DF2471"/>
    </linearGradient>
    <linearGradient id="paint14_linear_200_190" x1="7.34889" y1="27.2446" x2="7.34889" y2="25.5723" gradientUnits="userSpaceOnUse">
      <stop stop-color="#F0943C"/>
      <stop offset="0.0421637" stop-color="#EE8F42"/>
      <stop offset="0.3682" stop-color="#E76A5F"/>
      <stop offset="0.648" stop-color="#E34B6B"/>
      <stop offset="0.8676" stop-color="#E03170"/>
      <stop offset="1" stop-color="#DF2471"/>
    </linearGradient>
    <linearGradient id="paint15_linear_200_190" x1="10.1732" y1="22.8054" x2="10.1732" y2="21.56" gradientUnits="userSpaceOnUse">
      <stop stop-color="#F0943C"/>
      <stop offset="0.0421637" stop-color="#EE8F42"/>
      <stop offset="0.3682" stop-color="#E76A5F"/>
      <stop offset="0.648" stop-color="#E34B6B"/>
      <stop offset="0.8676" stop-color="#E03170"/>
      <stop offset="1" stop-color="#DF2471"/>
    </linearGradient>
    <linearGradient id="paint16_linear_200_190" x1="6.09485" y1="29.4581" x2="6.09485" y2="29.1957" gradientUnits="userSpaceOnUse">
      <stop stop-color="#F0943C"/>
      <stop offset="0.0421637" stop-color="#EE8F42"/>
      <stop offset="0.3682" stop-color="#E76A5F"/>
      <stop offset="0.648" stop-color="#E34B6B"/>
      <stop offset="0.8676" stop-color="#E03170"/>
      <stop offset="1" stop-color="#DF2471"/>
    </linearGradient>
    <linearGradient id="paint17_linear_200_190" x1="3.64111" y1="13.3926" x2="3.64111" y2="22.4835" gradientUnits="userSpaceOnUse">
      <stop stop-color="#F61530"/>
      <stop offset="1" stop-color="#CE031B"/>
    </linearGradient>
    <linearGradient id="paint18_linear_200_190" x1="22.8869" y1="7.70361" x2="22.8869" y2="14.817" gradientUnits="userSpaceOnUse">
      <stop stop-color="#F61530"/>
      <stop offset="1" stop-color="#CE031B"/>
    </linearGradient>
    <linearGradient id="paint19_linear_200_190" x1="29.1326" y1="18.7349" x2="29.1326" y2="25.9728" gradientUnits="userSpaceOnUse">
      <stop stop-color="#F61530"/>
      <stop offset="1" stop-color="#CE031B"/>
    </linearGradient>
    <linearGradient id="paint20_linear_200_190" x1="15.9529" y1="40.231" x2="15.9529" y2="14.7136" gradientUnits="userSpaceOnUse">
      <stop stop-color="#FF9E2F"/>
      <stop offset="1" stop-color="#F72431"/>
    </linearGradient>
    <linearGradient id="paint21_linear_200_190" x1="15.9325" y1="32.1462" x2="15.9325" y2="40.0188" gradientUnits="userSpaceOnUse">
      <stop stop-color="#FF883E"/>
      <stop offset="1" stop-color="#FFA02E"/>
    </linearGradient>
    <linearGradient id="paint22_linear_200_190" x1="15.9326" y1="32.1462" x2="15.9326" y2="34.7704" gradientUnits="userSpaceOnUse">
      <stop stop-color="#F99634"/>
      <stop offset="1" stop-color="#E94E28"/>
    </linearGradient>
    <linearGradient id="paint23_linear_200_190" x1="15.8904" y1="31.9296" x2="15.8904" y2="23.1443" gradientUnits="userSpaceOnUse">
      <stop stop-color="#F99C34"/>
      <stop offset="1" stop-color="#F61530"/>
    </linearGradient>
  </defs>
</svg>