<svg width="180" height="40" viewBox="0 0 581 240" fill="none" xmlns="http://www.w3.org/2000/svg">
<path d="M31.8262 193.318C31.77 193.487 31.77 193.655 31.7137 193.824C31.77 193.599 31.8262 193.43 31.8262 193.318Z" fill="url(#paint0_linear_3_2958)"/>
<path d="M34.5253 182.466C34.2441 183.365 34.0192 184.321 33.7943 185.165C33.963 184.321 34.2441 183.421 34.5253 182.466Z" fill="url(#paint1_linear_3_2958)"/>
<path d="M36.1558 177.124C35.9871 177.573 35.8746 178.023 35.7059 178.473C35.8746 178.08 35.9871 177.573 36.1558 177.124Z" fill="url(#paint2_linear_3_2958)"/>
<path d="M35.7061 178.586C35.5374 179.149 35.3688 179.711 35.2001 180.273C35.3125 179.711 35.5374 179.149 35.7061 178.586Z" fill="url(#paint3_linear_3_2958)"/>
<path d="M35.0314 180.667C34.919 181.06 34.7503 181.51 34.6378 181.904C34.8065 181.51 34.919 181.116 35.0314 180.667Z" fill="url(#paint4_linear_3_2958)"/>
<path d="M30.7015 199.839C30.7015 199.952 30.6453 200.064 30.6453 200.177C30.7015 200.064 30.7015 199.952 30.7015 199.839Z" fill="url(#paint5_linear_3_2958)"/>
<path d="M31.6011 194.498C31.5449 194.666 31.5449 194.835 31.4886 195.004C31.5449 194.835 31.6011 194.666 31.6011 194.498Z" fill="url(#paint6_linear_3_2958)"/>
<path d="M31.2077 196.861C31.2077 196.973 31.1515 197.142 31.1515 197.311C31.1515 197.142 31.1515 196.973 31.2077 196.861Z" fill="url(#paint7_linear_3_2958)"/>
<path d="M84.0074 112.459C83.4452 112.853 82.8829 113.246 82.3206 113.584C82.8829 113.19 83.4452 112.853 84.0074 112.459Z" fill="url(#paint8_linear_3_2958)"/>
<path d="M65.7887 127.753C65.4513 128.091 65.1701 128.428 64.8328 128.709C65.1701 128.428 65.5075 128.091 65.7887 127.753Z" fill="url(#paint9_linear_3_2958)"/>
<path d="M66.8008 126.741C70.0059 123.536 73.4359 120.443 77.2033 117.463C73.4359 120.443 69.9496 123.536 66.8008 126.741Z" fill="url(#paint10_linear_3_2958)"/>
<path d="M172.938 140.668C157.981 137.969 164.335 111.372 164.335 111.372C183.397 60.7655 150.727 46.0333 150.727 46.0333C150.277 65.0952 136.895 68.0754 136.895 68.0754C113.503 72.1801 107.599 53.3432 107.599 53.3432C96.0719 25.7906 114.403 0.0374305 114.403 0.0374305C50.8632 -2.21176 43.1598 97.6522 43.1598 97.6522C36.4684 106.312 26.7969 101.982 26.7969 101.982C13.5829 95.2906 15.4385 80.221 15.4385 80.221C-26.5651 152.87 30.4518 204.376 30.4518 204.432C30.4518 204.376 19.4308 130.153 96.0157 90.9609C96.0157 90.9609 169.564 127.623 160.455 204.432C191.325 177.217 192 134.539 192 134.539C185.871 143.367 172.938 140.668 172.938 140.668Z" fill="url(#paint11_linear_3_2958)"/>
<path d="M88.7307 109.367C87.3812 110.21 86.0879 111.054 84.8508 111.897C86.0879 110.998 87.4374 110.154 88.7307 109.367Z" fill="url(#paint12_linear_3_2958)"/>
<path d="M57.5231 137.143C57.0733 137.705 56.6234 138.268 56.1736 138.83C56.6234 138.324 57.0733 137.762 57.5231 137.143Z" fill="url(#paint13_linear_3_2958)"/>
<path d="M46.6709 153.45C44.7591 156.824 43.0722 160.198 41.554 163.459C43.0159 160.198 44.7591 156.824 46.6709 153.45Z" fill="url(#paint14_linear_3_2958)"/>
<path d="M64.2704 129.328C61.965 131.803 59.8282 134.277 57.804 136.807C59.8282 134.333 61.965 131.803 64.2704 129.328Z" fill="url(#paint15_linear_3_2958)"/>
<path d="M36.8305 175.155C36.6618 175.661 36.4369 176.224 36.2682 176.73C36.4931 176.224 36.6618 175.718 36.8305 175.155Z" fill="url(#paint16_linear_3_2958)"/>
<path d="M19.9053 134.894C32.6132 134.894 42.847 119.206 42.847 99.863C42.847 99.1883 42.847 98.5135 42.7907 97.8388C36.0994 106.442 26.4841 102.112 26.4841 102.112C13.2702 95.4209 15.1257 80.3513 15.1257 80.3513C7.08488 94.2401 2.69896 107.398 0.843384 119.543C5.00438 128.765 11.9769 134.894 19.9053 134.894Z" fill="url(#paint17_linear_3_2958)"/>
<path d="M138.325 88.8989C151.539 88.8989 162.841 79.3961 167.284 66.0697C161.885 51.3937 150.471 46.2206 150.471 46.2206C150.021 65.2825 136.638 68.2626 136.638 68.2626C113.247 72.3674 107.343 53.5304 107.343 53.5304C107.343 73.0422 121.175 88.8989 138.325 88.8989Z" fill="url(#paint18_linear_3_2958)"/>
<path d="M172.681 140.911C159.242 138.437 163.01 116.788 163.91 112.402C161.717 116.001 160.03 120.274 158.961 124.998C155.7 139.899 160.536 153.619 169.757 155.587C178.417 157.442 187.807 148.389 191.631 134.95C185.445 143.554 172.681 140.911 172.681 140.911Z" fill="url(#paint19_linear_3_2958)"/>
<path d="M96.0382 90.5299C19.3119 129.705 30.3532 204.114 30.3532 204.114C30.3532 204.114 34.1839 137.81 96.0382 104.658C96.0382 104.658 152.822 129.085 160.596 204.114C169.723 127.228 96.0382 90.5299 96.0382 90.5299Z" fill="url(#paint20_linear_3_2958)"/>
<path d="M95.3094 202.313C77.4846 202.313 61.6278 198.602 51.3378 192.811H50.4381V208.555C50.4381 225.874 70.6246 239.987 95.3656 239.987C120.107 239.987 140.293 225.817 140.293 208.555V192.811H139.393C128.991 198.602 113.134 202.313 95.3094 202.313Z" fill="url(#paint21_linear_3_2958)"/>
<path d="M139.281 192.811C128.991 198.602 113.135 202.313 95.3097 202.313C77.4849 202.313 61.6281 198.602 51.3381 192.811H50.4384C50.4384 192.979 50.3822 193.092 50.3822 193.26C50.3822 201.695 70.5124 208.499 95.3097 208.499C120.107 208.499 140.237 201.695 140.237 193.26C140.237 193.092 140.237 192.923 140.181 192.811H139.281Z" fill="url(#paint22_linear_3_2958)"/>
<path d="M95.0847 138.887C86.4815 138.999 79.509 146.084 79.509 154.687C79.509 159.86 81.9831 164.415 85.8068 167.339C88.4496 169.363 90.0802 172.456 90.0802 175.773V186.176C90.0802 189.1 92.4981 191.574 95.422 191.574C98.2898 191.518 100.651 189.212 100.651 186.288V175.661C100.651 172.343 102.226 169.307 104.869 167.283C108.692 164.415 111.166 159.804 111.166 154.631C111.11 145.915 103.913 138.774 95.0847 138.887ZM100.595 154.687C100.595 157.611 98.2335 159.973 95.3096 159.973C92.3856 159.973 90.024 157.611 90.024 154.687C90.024 151.763 92.3856 149.402 95.3096 149.402C98.2335 149.402 100.595 151.763 100.595 154.687Z" fill="url(#paint23_linear_3_2958)"/>
<path fill-rule="evenodd" clip-rule="evenodd" d="M297.055 97.437C294.495 97.437 292.35 96.6066 290.62 94.946C288.89 93.2853 288.025 91.2441 288.025 88.8223C288.025 86.2621 288.89 84.1517 290.62 82.491C292.35 80.8303 294.495 80 297.055 80C299.684 80 301.829 80.8303 303.49 82.491C305.22 84.1517 306.085 86.2621 306.085 88.8223C306.085 91.2441 305.22 93.2853 303.49 94.946C301.829 96.6066 299.684 97.437 297.055 97.437ZM304.528 152.965C304.528 157.601 302.106 159.92 297.263 159.92C294.91 159.92 293.042 159.366 291.658 158.259C290.274 157.083 289.582 155.318 289.582 152.965V113.421C289.582 111.207 290.135 109.477 291.243 108.231C292.419 106.986 294.356 106.363 297.055 106.363C299.754 106.363 301.656 106.986 302.763 108.231C303.94 109.477 304.528 111.207 304.528 113.421V152.965ZM368.536 152.862C368.536 157.567 371.027 159.92 376.009 159.92C380.991 159.92 383.482 157.567 383.482 152.862V128.782C383.482 122.14 385.904 118.818 390.747 118.818C395.729 118.818 398.22 122.14 398.22 128.782V152.447C398.22 157.152 400.642 159.505 405.486 159.505C410.329 159.505 412.751 157.152 412.751 152.447V128.782C412.751 122.14 415.242 118.818 420.224 118.818C422.715 118.818 424.549 119.614 425.725 121.205C426.901 122.728 427.489 125.253 427.489 128.782V152.862C427.489 157.567 429.98 159.92 434.962 159.92C439.944 159.92 442.435 157.567 442.435 152.862V127.952C442.435 120.894 440.74 115.532 437.35 111.864C434.028 108.197 429.219 106.363 422.923 106.363C414.342 106.363 408.53 109.442 405.486 115.601C402.441 109.442 396.629 106.363 388.049 106.363C381.752 106.363 376.908 108.197 373.518 111.864C370.196 115.532 368.536 120.894 368.536 127.952V152.862ZM453.576 152.862C453.576 157.567 456.067 159.92 461.049 159.92C466.031 159.92 468.522 157.567 468.522 152.862V128.782C468.522 122.14 470.944 118.818 475.787 118.818C480.769 118.818 483.26 122.14 483.26 128.782V152.447C483.26 157.152 485.682 159.505 490.526 159.505C495.369 159.505 497.791 157.152 497.791 152.447V128.782C497.791 122.14 500.282 118.818 505.264 118.818C507.755 118.818 509.589 119.614 510.765 121.205C511.941 122.728 512.529 125.253 512.529 128.782V152.862C512.529 157.567 515.02 159.92 520.002 159.92C524.984 159.92 527.475 157.567 527.475 152.862V127.952C527.475 120.894 525.78 115.532 522.39 111.864C519.068 108.197 514.259 106.363 507.963 106.363C499.383 106.363 493.57 109.442 490.526 115.601C487.481 109.442 481.669 106.363 473.089 106.363C466.792 106.363 461.948 108.197 458.558 111.864C455.237 115.532 453.576 120.894 453.576 127.952V152.862ZM557.6 159.92C550.681 159.92 545.284 158.328 541.409 155.145C537.534 151.893 535.596 147.707 535.596 142.587C535.596 136.567 538.122 132.207 543.173 129.509C548.294 126.81 555.767 125.876 565.592 126.706C565.108 123.523 564.104 121.378 562.582 120.271C561.06 119.095 559.226 118.507 557.081 118.507C555.351 118.507 553.898 118.611 552.722 118.818C551.615 118.957 550.577 119.13 549.608 119.337C548.639 119.545 547.463 119.649 546.079 119.649C544.211 119.649 542.723 119.337 541.616 118.714C540.509 118.023 539.956 116.673 539.956 114.667C539.956 111.83 541.167 109.754 543.588 108.439C546.079 107.055 549.989 106.363 555.317 106.363C563.758 106.363 570.021 108.785 574.103 113.629C578.162 118.376 580.203 124.731 580.227 132.693C580.253 133.01 580.267 133.338 580.267 133.678V153.092C580.267 157.697 577.955 160 573.332 160C571.104 160 569.331 159.459 568.013 158.377C565.138 159.405 561.667 159.92 557.6 159.92ZM550.542 142.587C550.542 146.531 553.206 148.503 558.534 148.503C560.264 148.503 561.613 148.191 562.582 147.569C563.551 146.946 564.243 145.7 564.658 143.832C565.142 141.964 565.488 139.161 565.696 135.425C565.35 135.771 564.9 136.013 564.347 136.151C563.793 136.29 563.24 136.359 562.686 136.359C558.119 136.359 554.936 136.809 553.137 137.708C551.407 138.539 550.542 140.165 550.542 142.587ZM319.812 155.145C323.687 158.328 329.084 159.92 336.004 159.92C340.071 159.92 343.542 159.405 346.417 158.377C347.735 159.459 349.508 160 351.735 160C356.359 160 358.67 157.697 358.67 153.092V133.678C358.67 133.338 358.657 133.01 358.63 132.694C358.607 124.731 356.566 118.376 352.507 113.629C348.424 108.785 342.162 106.363 333.72 106.363C328.392 106.363 324.483 107.055 321.992 108.439C319.57 109.754 318.359 111.83 318.359 114.667C318.359 116.673 318.913 118.023 320.02 118.714C321.127 119.337 322.615 119.649 324.483 119.649C325.867 119.649 327.043 119.545 328.012 119.337C328.981 119.13 330.019 118.957 331.126 118.818C332.302 118.611 333.755 118.507 335.485 118.507C337.63 118.507 339.464 119.095 340.986 120.271C342.508 121.378 343.511 123.523 343.996 126.706C334.17 125.876 326.697 126.81 321.577 129.509C316.526 132.207 314 136.567 314 142.587C314 147.707 315.937 151.893 319.812 155.145ZM336.938 148.503C331.61 148.503 328.946 146.531 328.946 142.587C328.946 140.165 329.811 138.539 331.541 137.708C333.34 136.809 336.523 136.359 341.09 136.359C341.643 136.359 342.197 136.29 342.75 136.151C343.304 136.013 343.754 135.771 344.1 135.425C343.892 139.161 343.546 141.964 343.062 143.832C342.646 145.7 341.955 146.946 340.986 147.569C340.017 148.191 338.668 148.503 336.938 148.503ZM245.681 159.919C250.524 159.919 252.946 157.601 252.946 152.965V141.341C252.946 137.673 253.638 135.217 255.022 133.971C256.406 132.726 259.07 132.103 263.014 132.103H271.11C275.884 132.103 278.271 129.785 278.271 125.149C278.271 120.513 275.884 118.195 271.11 118.195H263.844C258.655 118.195 254.71 119.268 252.012 121.413C252.358 119.475 252.6 117.434 252.738 115.289C252.877 113.075 252.946 111.033 252.946 109.165C252.946 106.467 253.084 104.495 253.361 103.249C253.638 101.934 254.261 101.104 255.229 100.758C256.198 100.343 257.686 100.135 259.692 100.135H276.299C278.513 100.135 280.278 99.5126 281.592 98.2671C282.907 97.0216 283.564 95.3956 283.564 93.3889C283.564 91.2439 282.907 89.5486 281.592 88.3031C280.278 87.0576 278.513 86.4349 276.299 86.4349H253.984C248.933 86.4349 244.989 87.888 242.152 90.7941C239.384 93.6311 238 97.6444 238 102.834V152.965C238 155.249 238.692 156.979 240.076 158.155C241.46 159.331 243.328 159.919 245.681 159.919Z" fill="white"/>
<defs>
<linearGradient id="paint0_linear_3_2958" x1="31.8044" y1="193.774" x2="31.8044" y2="193.291" gradientUnits="userSpaceOnUse">
<stop stop-color="#F0943C"/>
<stop offset="0.0421637" stop-color="#EE8F42"/>
<stop offset="0.3682" stop-color="#E76A5F"/>
<stop offset="0.648" stop-color="#E34B6B"/>
<stop offset="0.8676" stop-color="#E03170"/>
<stop offset="1" stop-color="#DF2471"/>
</linearGradient>
<linearGradient id="paint1_linear_3_2958" x1="34.1259" y1="185.199" x2="34.1259" y2="182.477" gradientUnits="userSpaceOnUse">
<stop stop-color="#F0943C"/>
<stop offset="0.0421637" stop-color="#EE8F42"/>
<stop offset="0.3682" stop-color="#E76A5F"/>
<stop offset="0.648" stop-color="#E34B6B"/>
<stop offset="0.8676" stop-color="#E03170"/>
<stop offset="1" stop-color="#DF2471"/>
</linearGradient>
<linearGradient id="paint2_linear_3_2958" x1="35.9384" y1="178.513" x2="35.9384" y2="177.142" gradientUnits="userSpaceOnUse">
<stop stop-color="#F0943C"/>
<stop offset="0.0421637" stop-color="#EE8F42"/>
<stop offset="0.3682" stop-color="#E76A5F"/>
<stop offset="0.648" stop-color="#E34B6B"/>
<stop offset="0.8676" stop-color="#E03170"/>
<stop offset="1" stop-color="#DF2471"/>
</linearGradient>
<linearGradient id="paint3_linear_3_2958" x1="35.4331" y1="180.248" x2="35.4331" y2="178.561" gradientUnits="userSpaceOnUse">
<stop stop-color="#F0943C"/>
<stop offset="0.0421637" stop-color="#EE8F42"/>
<stop offset="0.3682" stop-color="#E76A5F"/>
<stop offset="0.648" stop-color="#E34B6B"/>
<stop offset="0.8676" stop-color="#E03170"/>
<stop offset="1" stop-color="#DF2471"/>
</linearGradient>
<linearGradient id="paint4_linear_3_2958" x1="34.8481" y1="181.938" x2="34.8481" y2="180.686" gradientUnits="userSpaceOnUse">
<stop stop-color="#F0943C"/>
<stop offset="0.0421637" stop-color="#EE8F42"/>
<stop offset="0.3682" stop-color="#E76A5F"/>
<stop offset="0.648" stop-color="#E34B6B"/>
<stop offset="0.8676" stop-color="#E03170"/>
<stop offset="1" stop-color="#DF2471"/>
</linearGradient>
<linearGradient id="paint5_linear_3_2958" x1="30.702" y1="200.169" x2="30.702" y2="199.839" gradientUnits="userSpaceOnUse">
<stop stop-color="#F0943C"/>
<stop offset="0.0421637" stop-color="#EE8F42"/>
<stop offset="0.3682" stop-color="#E76A5F"/>
<stop offset="0.648" stop-color="#E34B6B"/>
<stop offset="0.8676" stop-color="#E03170"/>
<stop offset="1" stop-color="#DF2471"/>
</linearGradient>
<linearGradient id="paint6_linear_3_2958" x1="31.5666" y1="195.007" x2="31.5666" y2="194.509" gradientUnits="userSpaceOnUse">
<stop stop-color="#F0943C"/>
<stop offset="0.0421637" stop-color="#EE8F42"/>
<stop offset="0.3682" stop-color="#E76A5F"/>
<stop offset="0.648" stop-color="#E34B6B"/>
<stop offset="0.8676" stop-color="#E03170"/>
<stop offset="1" stop-color="#DF2471"/>
</linearGradient>
<linearGradient id="paint7_linear_3_2958" x1="31.155" y1="197.28" x2="31.155" y2="196.856" gradientUnits="userSpaceOnUse">
<stop stop-color="#F0943C"/>
<stop offset="0.0421637" stop-color="#EE8F42"/>
<stop offset="0.3682" stop-color="#E76A5F"/>
<stop offset="0.648" stop-color="#E34B6B"/>
<stop offset="0.8676" stop-color="#E03170"/>
<stop offset="1" stop-color="#DF2471"/>
</linearGradient>
<linearGradient id="paint8_linear_3_2958" x1="83.149" y1="113.605" x2="83.149" y2="112.454" gradientUnits="userSpaceOnUse">
<stop stop-color="#F0943C"/>
<stop offset="0.0421637" stop-color="#EE8F42"/>
<stop offset="0.3682" stop-color="#E76A5F"/>
<stop offset="0.648" stop-color="#E34B6B"/>
<stop offset="0.8676" stop-color="#E03170"/>
<stop offset="1" stop-color="#DF2471"/>
</linearGradient>
<linearGradient id="paint9_linear_3_2958" x1="65.3278" y1="128.733" x2="65.3278" y2="127.751" gradientUnits="userSpaceOnUse">
<stop stop-color="#F0943C"/>
<stop offset="0.0421637" stop-color="#EE8F42"/>
<stop offset="0.3682" stop-color="#E76A5F"/>
<stop offset="0.648" stop-color="#E34B6B"/>
<stop offset="0.8676" stop-color="#E03170"/>
<stop offset="1" stop-color="#DF2471"/>
</linearGradient>
<linearGradient id="paint10_linear_3_2958" x1="71.9935" y1="126.751" x2="71.9935" y2="117.448" gradientUnits="userSpaceOnUse">
<stop stop-color="#F0943C"/>
<stop offset="0.0421637" stop-color="#EE8F42"/>
<stop offset="0.3682" stop-color="#E76A5F"/>
<stop offset="0.648" stop-color="#E34B6B"/>
<stop offset="0.8676" stop-color="#E03170"/>
<stop offset="1" stop-color="#DF2471"/>
</linearGradient>
<linearGradient id="paint11_linear_3_2958" x1="96.0062" y1="204.405" x2="96.0062" y2="-0.107356" gradientUnits="userSpaceOnUse">
<stop stop-color="#F99C34"/>
<stop offset="1" stop-color="#F61530"/>
</linearGradient>
<linearGradient id="paint12_linear_3_2958" x1="86.7945" y1="111.858" x2="86.7945" y2="109.341" gradientUnits="userSpaceOnUse">
<stop stop-color="#F0943C"/>
<stop offset="0.0421637" stop-color="#EE8F42"/>
<stop offset="0.3682" stop-color="#E76A5F"/>
<stop offset="0.648" stop-color="#E34B6B"/>
<stop offset="0.8676" stop-color="#E03170"/>
<stop offset="1" stop-color="#DF2471"/>
</linearGradient>
<linearGradient id="paint13_linear_3_2958" x1="56.8694" y1="138.88" x2="56.8694" y2="137.169" gradientUnits="userSpaceOnUse">
<stop stop-color="#F0943C"/>
<stop offset="0.0421637" stop-color="#EE8F42"/>
<stop offset="0.3682" stop-color="#E76A5F"/>
<stop offset="0.648" stop-color="#E34B6B"/>
<stop offset="0.8676" stop-color="#E03170"/>
<stop offset="1" stop-color="#DF2471"/>
</linearGradient>
<linearGradient id="paint14_linear_3_2958" x1="44.0925" y1="163.46" x2="44.0925" y2="153.427" gradientUnits="userSpaceOnUse">
<stop stop-color="#F0943C"/>
<stop offset="0.0421637" stop-color="#EE8F42"/>
<stop offset="0.3682" stop-color="#E76A5F"/>
<stop offset="0.648" stop-color="#E34B6B"/>
<stop offset="0.8676" stop-color="#E03170"/>
<stop offset="1" stop-color="#DF2471"/>
</linearGradient>
<linearGradient id="paint15_linear_3_2958" x1="61.0371" y1="136.827" x2="61.0371" y2="129.355" gradientUnits="userSpaceOnUse">
<stop stop-color="#F0943C"/>
<stop offset="0.0421637" stop-color="#EE8F42"/>
<stop offset="0.3682" stop-color="#E76A5F"/>
<stop offset="0.648" stop-color="#E34B6B"/>
<stop offset="0.8676" stop-color="#E03170"/>
<stop offset="1" stop-color="#DF2471"/>
</linearGradient>
<linearGradient id="paint16_linear_3_2958" x1="36.5677" y1="176.738" x2="36.5677" y2="175.164" gradientUnits="userSpaceOnUse">
<stop stop-color="#F0943C"/>
<stop offset="0.0421637" stop-color="#EE8F42"/>
<stop offset="0.3682" stop-color="#E76A5F"/>
<stop offset="0.648" stop-color="#E34B6B"/>
<stop offset="0.8676" stop-color="#E03170"/>
<stop offset="1" stop-color="#DF2471"/>
</linearGradient>
<linearGradient id="paint17_linear_3_2958" x1="21.8452" y1="80.3513" x2="21.8452" y2="134.894" gradientUnits="userSpaceOnUse">
<stop stop-color="#F61530"/>
<stop offset="1" stop-color="#CE031B"/>
</linearGradient>
<linearGradient id="paint18_linear_3_2958" x1="137.313" y1="46.2206" x2="137.313" y2="88.8989" gradientUnits="userSpaceOnUse">
<stop stop-color="#F61530"/>
<stop offset="1" stop-color="#CE031B"/>
</linearGradient>
<linearGradient id="paint19_linear_3_2958" x1="174.787" y1="112.402" x2="174.787" y2="155.828" gradientUnits="userSpaceOnUse">
<stop stop-color="#F61530"/>
<stop offset="1" stop-color="#CE031B"/>
</linearGradient>
<linearGradient id="paint20_linear_3_2958" x1="95.712" y1="241.375" x2="95.712" y2="88.2785" gradientUnits="userSpaceOnUse">
<stop stop-color="#FF9E2F"/>
<stop offset="1" stop-color="#F72431"/>
</linearGradient>
<linearGradient id="paint21_linear_3_2958" x1="95.5905" y1="192.868" x2="95.5905" y2="240.101" gradientUnits="userSpaceOnUse">
<stop stop-color="#FF883E"/>
<stop offset="1" stop-color="#FFA02E"/>
</linearGradient>
<linearGradient id="paint22_linear_3_2958" x1="95.5906" y1="192.868" x2="95.5906" y2="208.612" gradientUnits="userSpaceOnUse">
<stop stop-color="#F99634"/>
<stop offset="1" stop-color="#E94E28"/>
</linearGradient>
<linearGradient id="paint23_linear_3_2958" x1="95.3387" y1="191.567" x2="95.3387" y2="138.858" gradientUnits="userSpaceOnUse">
<stop stop-color="#F99C34"/>
<stop offset="1" stop-color="#F61530"/>
</linearGradient>
</defs>
</svg>

  